<?xml version="1.0" encoding="UTF-8" standalone="no"?>
<svg width="1024" height="1024" viewBox="0 0 1024 1024" fill="none" xmlns="http://www.w3.org/2000/svg">
<rect width="1024" height="1024" fill="#1a1a1a"/>
<rect width="64" height="64" fill="#222222"/>
<rect x="64" width="64" height="64" fill="#1e1e1e"/>
<rect x="128" width="64" height="64" fill="#222222"/>
<rect x="192" width="64" height="64" fill="#1e1e1e"/>
<rect x="256" width="64" height="64" fill="#222222"/>
<rect x="320" width="64" height="64" fill="#1e1e1e"/>
<rect x="384" width="64" height="64" fill="#222222"/>
<rect x="448" width="64" height="64" fill="#1e1e1e"/>
<rect x="512" width="64" height="64" fill="#222222"/>
<rect x="576" width="64" height="64" fill="#1e1e1e"/>
<rect x="640" width="64" height="64" fill="#222222"/>
<rect x="704" width="64" height="64" fill="#1e1e1e"/>
<rect x="768" width="64" height="64" fill="#222222"/>
<rect x="832" width="64" height="64" fill="#1e1e1e"/>
<rect x="896" width="64" height="64" fill="#222222"/>
<rect x="960" width="64" height="64" fill="#1e1e1e"/>
<rect y="64" width="64" height="64" fill="#1e1e1e"/>
<rect x="64" y="64" width="64" height="64" fill="#222222"/>
<rect x="128" y="64" width="64" height="64" fill="#1e1e1e"/>
<rect x="192" y="64" width="64" height="64" fill="#222222"/>
<rect x="256" y="64" width="64" height="64" fill="#1e1e1e"/>
<rect x="320" y="64" width="64" height="64" fill="#222222"/>
<rect x="384" y="64" width="64" height="64" fill="#1e1e1e"/>
<rect x="448" y="64" width="64" height="64" fill="#222222"/>
<rect x="512" y="64" width="64" height="64" fill="#1e1e1e"/>
<rect x="576" y="64" width="64" height="64" fill="#222222"/>
<rect x="640" y="64" width="64" height="64" fill="#1e1e1e"/>
<rect x="704" y="64" width="64" height="64" fill="#222222"/>
<rect x="768" y="64" width="64" height="64" fill="#1e1e1e"/>
<rect x="832" y="64" width="64" height="64" fill="#222222"/>
<rect x="896" y="64" width="64" height="64" fill="#1e1e1e"/>
<rect x="960" y="64" width="64" height="64" fill="#222222"/>
<rect y="128" width="64" height="64" fill="#222222"/>
<rect x="64" y="128" width="64" height="64" fill="#1e1e1e"/>
<rect x="128" y="128" width="64" height="64" fill="#222222"/>
<rect x="192" y="128" width="64" height="64" fill="#1e1e1e"/>
<rect x="256" y="128" width="64" height="64" fill="#222222"/>
<rect x="320" y="128" width="64" height="64" fill="#1e1e1e"/>
<rect x="384" y="128" width="64" height="64" fill="#222222"/>
<rect x="448" y="128" width="64" height="64" fill="#1e1e1e"/>
<rect x="512" y="128" width="64" height="64" fill="#222222"/>
<rect x="576" y="128" width="64" height="64" fill="#1e1e1e"/>
<rect x="640" y="128" width="64" height="64" fill="#222222"/>
<rect x="704" y="128" width="64" height="64" fill="#1e1e1e"/>
<rect x="768" y="128" width="64" height="64" fill="#222222"/>
<rect x="832" y="128" width="64" height="64" fill="#1e1e1e"/>
<rect x="896" y="128" width="64" height="64" fill="#222222"/>
<rect x="960" y="128" width="64" height="64" fill="#1e1e1e"/>
</svg>
